<?xml version="1.0" encoding="UTF-8" standalone="no"?>
<!DOCTYPE svg PUBLIC "-//W3C//DTD SVG 1.1//EN"
 "http://www.w3.org/Graphics/SVG/1.1/DTD/svg11.dtd">
<!-- Generated by graphviz version 2.43.0 (0)
 -->
<!-- Title: conceptmap Pages: 1 -->
<svg width="226pt" height="324pt"
 viewBox="0.00 0.00 225.50 324.00" xmlns="http://www.w3.org/2000/svg" xmlns:xlink="http://www.w3.org/1999/xlink">
<g id="graph0" class="graph" transform="scale(1 1) rotate(0) translate(4 320)">
<title>conceptmap</title>
<polygon fill="white" stroke="transparent" points="-4,4 -4,-320 221.5,-320 221.5,4 -4,4"/>
<!-- atPos -->
<g id="node1" class="node">
<title>atPos</title>
<polygon fill="none" stroke="black" points="159,-316 38,-316 38,-280 159,-280 159,-316"/>
<text text-anchor="middle" x="98.5" y="-294.3" font-family="Arial" font-size="14.00">Position of atoms</text>
</g>
<!-- SOAPvec -->
<g id="node2" class="node">
<title>SOAPvec</title>
<polygon fill="none" stroke="black" points="197,-229 0,-229 0,-191 197,-191 197,-229"/>
<text text-anchor="middle" x="98.5" y="-213.8" font-family="Arial" font-size="14.00">Mathematical Representation </text>
<text text-anchor="middle" x="98.5" y="-198.8" font-family="Arial" font-size="14.00"> of Molecule</text>
</g>
<!-- atPos&#45;&gt;SOAPvec -->
<g id="edge1" class="edge">
<title>atPos&#45;&gt;SOAPvec</title>
<path fill="none" stroke="black" d="M98.5,-279.6C98.5,-268.06 98.5,-252.65 98.5,-239.36"/>
<polygon fill="black" stroke="black" points="102,-239.27 98.5,-229.27 95,-239.27 102,-239.27"/>
<text text-anchor="middle" x="127.5" y="-250.8" font-family="Arial" font-size="14.00"> 1. SOAP</text>
</g>
<!-- setSim -->
<g id="node3" class="node">
<title>setSim</title>
<polygon fill="none" stroke="black" points="176.5,-140 20.5,-140 20.5,-102 176.5,-102 176.5,-140"/>
<text text-anchor="middle" x="98.5" y="-124.8" font-family="Arial" font-size="14.00">Similarity to molecules </text>
<text text-anchor="middle" x="98.5" y="-109.8" font-family="Arial" font-size="14.00"> in the learning set</text>
</g>
<!-- SOAPvec&#45;&gt;setSim -->
<g id="edge2" class="edge">
<title>SOAPvec&#45;&gt;setSim</title>
<path fill="none" stroke="black" d="M98.5,-190.97C98.5,-179.19 98.5,-163.56 98.5,-150.16"/>
<polygon fill="black" stroke="black" points="102,-150 98.5,-140 95,-150 102,-150"/>
<text text-anchor="middle" x="155" y="-161.8" font-family="Arial" font-size="14.00"> &#160;2. Create Kernels</text>
</g>
<!-- result -->
<g id="node4" class="node">
<title>result</title>
<polygon fill="none" stroke="black" points="158,-36 39,-36 39,0 158,0 158,-36"/>
<text text-anchor="middle" x="98.5" y="-14.3" font-family="Arial" font-size="14.00">Predicted energy</text>
</g>
<!-- setSim&#45;&gt;result -->
<g id="edge3" class="edge">
<title>setSim&#45;&gt;result</title>
<path fill="none" stroke="black" d="M98.5,-101.94C98.5,-86.53 98.5,-64.13 98.5,-46.49"/>
<polygon fill="black" stroke="black" points="102,-46.23 98.5,-36.23 95,-46.23 102,-46.23"/>
<text text-anchor="middle" x="158" y="-72.8" font-family="Arial" font-size="14.00"> 3. Multiply Kernels </text>
<text text-anchor="middle" x="158" y="-57.8" font-family="Arial" font-size="14.00"> by x_n</text>
</g>
</g>
</svg>
